<?xml version="1.0" encoding="utf-8"?>
<!-- Generator: Adobe Illustrator 23.0.0, SVG Export Plug-In . SVG Version: 6.00 Build 0)  -->
<svg version="1.1" id="Layer_1" xmlns="http://www.w3.org/2000/svg" xmlns:xlink="http://www.w3.org/1999/xlink" x="0px" y="0px"
	 viewBox="0 0 512 512" style="enable-background:new 0 0 512 512;" xml:space="preserve">
<style type="text/css">
	.st0{fill:#FFFFFF;}
</style>
<g>
	<g>
		<g>
			<path class="st0" d="M256,0C114.8,0,0,114.8,0,256s114.8,256,256,256s256-114.8,256-256S397.2,0,256,0z M256,474.5
				c-120.5,0-218.5-98-218.5-218.5S135.5,37.5,256,37.5s218.5,98,218.5,218.5S376.5,474.5,256,474.5z"/>
			<path class="st0" d="M337.3,137.7c-8.5-5.9-20.2-3.7-26.1,4.8c-5.9,8.5-3.7,20.2,4.8,26.1c28.9,19.9,46.1,52.6,46.1,87.5
				c0,58.5-47.6,106.1-106.1,106.1S149.9,314.5,149.9,256c0-33.9,16.5-66,44-86c8.4-6.1,10.2-17.8,4.2-26.2
				c-6.1-8.4-17.8-10.2-26.2-4.2c-37.3,27-59.5,70.5-59.5,116.4c0,79.2,64.4,143.6,143.6,143.6S399.6,335.2,399.6,256
				C399.6,208.8,376.3,164.5,337.3,137.7z"/>
			<path class="st0" d="M256,213.5c10.3,0,18.7-8.4,18.7-18.7V95.6c0-10.3-8.4-18.7-18.7-18.7s-18.7,8.4-18.7,18.7v99.2
				C237.3,205.1,245.7,213.5,256,213.5z"/>
		</g>
	</g>
</g>
</svg>
