<svg xmlns="http://www.w3.org/2000/svg" xmlns:xlink="http://www.w3.org/1999/xlink" viewBox="0 0 579.86 381.64"><defs><style>.cls-1{fill:none;}.cls-2{isolation:isolate;}.cls-3{fill:#1c1c1c;}.cls-4{fill:#b7cae5;}.cls-5{clip-path:url(#clip-path);}.cls-6{opacity:0.3;}.cls-11,.cls-6{mix-blend-mode:multiply;}.cls-7{fill:#8aa3c1;}.cls-8{clip-path:url(#clip-path-2);}.cls-9{fill:#3772ff;}.cls-10{fill:#fff;}.cls-11{opacity:0.2;}.cls-12{fill:#f0cd32;}</style><clipPath id="clip-path"><rect class="cls-1" x="41.44" y="53.25" width="496.98" height="90.66"/></clipPath><clipPath id="clip-path-2"><rect class="cls-1" x="41.44" y="177.31" width="496.98" height="90.66"/></clipPath></defs><title>Recurso 1</title><g class="cls-2"><g id="Capa_2" data-name="Capa 2"><g id="Capa_1-2" data-name="Capa 1"><rect class="cls-3" x="82.36" y="5.63" width="45.87" height="343.37"/><rect class="cls-3" x="451.63" y="5.63" width="45.87" height="343.37"/><rect class="cls-4" x="41.44" y="53.25" width="496.98" height="90.66"/><g class="cls-5"><polygon class="cls-3" points="485.03 215.09 438.83 215.09 379.33 0 425.53 0 485.03 215.09"/><polygon class="cls-3" points="105.69 215.09 59.49 215.09 0 0 46.2 0 105.69 215.09"/><polygon class="cls-3" points="200.53 215.09 154.33 215.09 94.83 0 141.03 0 200.53 215.09"/><polygon class="cls-3" points="295.36 215.09 249.16 215.09 189.67 0 235.87 0 295.36 215.09"/><polygon class="cls-3" points="390.19 215.09 344 215.09 284.5 0 330.7 0 390.19 215.09"/><polygon class="cls-3" points="579.86 215.09 533.66 215.09 474.17 0 520.37 0 579.86 215.09"/></g><g class="cls-6"><rect class="cls-7" x="41.44" y="121.25" width="496.98" height="22.65"/></g><rect class="cls-4" x="41.44" y="177.31" width="496.98" height="90.66"/><g class="cls-8"><polygon class="cls-3" points="485.03 339.16 438.83 339.16 379.33 124.06 425.53 124.06 485.03 339.16"/><polygon class="cls-3" points="105.69 339.16 59.49 339.16 0 124.06 46.2 124.06 105.69 339.16"/><polygon class="cls-3" points="200.53 339.16 154.33 339.16 94.83 124.06 141.03 124.06 200.53 339.16"/><polygon class="cls-3" points="295.36 339.16 249.16 339.16 189.67 124.06 235.87 124.06 295.36 339.16"/><polygon class="cls-3" points="390.19 339.16 344 339.16 284.5 124.06 330.7 124.06 390.19 339.16"/><polygon class="cls-3" points="579.86 339.16 533.66 339.16 474.17 124.06 520.37 124.06 579.86 339.16"/></g><g class="cls-6"><rect class="cls-7" x="41.44" y="245.32" width="496.98" height="22.65"/></g><path class="cls-9" d="M183.42,381.64H223.5l2.3-19.15H355.52l2.3,19.15h40.09L349.65,137.91h-118Zm62.52-205.11a13.22,13.22,0,0,1,13.21-13.22h63a13.22,13.22,0,1,1,0,26.43h-63A13.21,13.21,0,0,1,245.94,176.53Z"/><polygon class="cls-10" points="230.1 283.57 226.49 283.57 226.49 289.08 228.35 296.15 233.4 296.15 230.1 283.57"/><polygon class="cls-10" points="244.74 296.15 239.69 296.15 236.39 283.57 241.44 283.57 244.74 296.15"/><polygon class="cls-10" points="256.08 296.15 251.03 296.15 247.73 283.57 252.78 283.57 256.08 296.15"/><polygon class="cls-10" points="267.42 296.15 262.36 296.15 259.07 283.57 264.12 283.57 267.42 296.15"/><polygon class="cls-10" points="278.76 296.15 273.7 296.15 270.4 283.57 275.46 283.57 278.76 296.15"/><polygon class="cls-10" points="290.1 296.15 285.04 296.15 281.74 283.57 286.8 283.57 290.1 296.15"/><polygon class="cls-10" points="301.44 296.15 296.38 296.15 293.08 283.57 298.14 283.57 301.44 296.15"/><polygon class="cls-10" points="312.77 296.15 307.72 296.15 304.42 283.57 309.48 283.57 312.77 296.15"/><polygon class="cls-10" points="324.11 296.15 319.06 296.15 315.76 283.57 320.81 283.57 324.11 296.15"/><polygon class="cls-10" points="335.45 296.15 330.4 296.15 327.1 283.57 332.15 283.57 335.45 296.15"/><polygon class="cls-10" points="346.79 296.15 341.74 296.15 338.44 283.57 343.49 283.57 346.79 296.15"/><polygon class="cls-10" points="354.83 283.57 349.78 283.57 353.08 296.15 354.83 296.15 354.83 283.57"/><g class="cls-11"><path class="cls-12" d="M357.82,381.64l-2.3-19.15H225.8l-2.3,19.15H183.42l14.64-73.94c120.18,13.68,155.62-50.81,165.48-99.65l34.37,173.59Z"/></g><path class="cls-10" d="M280,251v-12.5h7.66v2.74h-4.34v2.17h4.09v2.68h-4.09v2.11h4.34V251Z"/><path class="cls-10" d="M289.87,251v-12.5h3.29l4.72,6.43c.09.13.24.4.45.79s.44.87.69,1.42c-.07-.52-.12-1-.15-1.39s-.05-.76-.05-1.08v-6.17h3.27V251h-3.27l-4.72-6.45a7.38,7.38,0,0,1-.46-.79c-.21-.4-.43-.86-.68-1.4.07.53.12,1,.15,1.39s.05.77.05,1.08V251Z"/><path class="cls-10" d="M232.34,260v3.73a5.16,5.16,0,0,0-1.4-1.14,3.19,3.19,0,0,0-1.49-.37,3.07,3.07,0,0,0-2.38,1,3.77,3.77,0,0,0-.91,2.61,3.5,3.5,0,0,0,.93,2.5,3.09,3.09,0,0,0,2.36,1,3.18,3.18,0,0,0,1.49-.36,5.42,5.42,0,0,0,1.4-1.15v3.73a8.13,8.13,0,0,1-1.62.59,6.78,6.78,0,0,1-1.62.2,7.08,7.08,0,0,1-1.89-.25,5.26,5.26,0,0,1-1.59-.74,6.2,6.2,0,0,1-2.14-2.36,6.9,6.9,0,0,1-.73-3.21,7,7,0,0,1,.46-2.61,6.19,6.19,0,0,1,1.41-2.13,5.82,5.82,0,0,1,2-1.37,6.56,6.56,0,0,1,2.48-.45,6.77,6.77,0,0,1,1.62.19A8.81,8.81,0,0,1,232.34,260Z"/><path class="cls-10" d="M247.1,265.75a6.4,6.4,0,0,1-1.94,4.64,6.72,6.72,0,0,1-2.19,1.42,6.8,6.8,0,0,1-5.12,0,6.72,6.72,0,0,1-3.62-3.54,6.6,6.6,0,0,1,0-5,6.31,6.31,0,0,1,1.46-2.11,6.39,6.39,0,0,1,2.16-1.42,6.71,6.71,0,0,1,5.13,0,6.47,6.47,0,0,1,2.18,1.42,6.51,6.51,0,0,1,1.94,4.63Zm-6.68,3.68a3,3,0,0,0,2.34-1.05,4.15,4.15,0,0,0,0-5.25,3.13,3.13,0,0,0-4.68,0,3.79,3.79,0,0,0-.92,2.62,3.84,3.84,0,0,0,.91,2.64A3,3,0,0,0,240.42,269.43Z"/><path class="cls-10" d="M249.23,272v-12.5h3.29l4.72,6.43a8.84,8.84,0,0,1,.45.79c.2.39.43.86.68,1.41-.06-.52-.12-1-.15-1.38s0-.77,0-1.08v-6.17h3.27V272h-3.27l-4.73-6.46a8.84,8.84,0,0,1-.45-.79c-.21-.39-.44-.86-.68-1.39.07.52.12,1,.15,1.39s.05.76.05,1.07V272Z"/><path class="cls-10" d="M264.68,267.94a6.09,6.09,0,0,0,1.5,1.29,3,3,0,0,0,1.48.43,1.72,1.72,0,0,0,1.12-.37,1.18,1.18,0,0,0,.44-.93,1.21,1.21,0,0,0-.38-1,4.72,4.72,0,0,0-1.72-.7,5.66,5.66,0,0,1-2.6-1.29,3,3,0,0,1-.76-2.17,3.85,3.85,0,0,1,1.2-2.93,4.38,4.38,0,0,1,3.12-1.13,6.57,6.57,0,0,1,1.95.28,6.06,6.06,0,0,1,1.76.84l-1.07,2.45a4.54,4.54,0,0,0-1.19-.75,3.12,3.12,0,0,0-1.21-.25,1.65,1.65,0,0,0-1,.29.93.93,0,0,0-.38.76.92.92,0,0,0,.34.75,3.56,3.56,0,0,0,1.3.54l.15,0a6.36,6.36,0,0,1,2.74,1.24,3,3,0,0,1,.68,1.11,4.25,4.25,0,0,1,.23,1.43,4.14,4.14,0,0,1-1.31,3.19,4.9,4.9,0,0,1-3.48,1.21,6.3,6.3,0,0,1-2.38-.44,6.87,6.87,0,0,1-2.06-1.39Z"/><path class="cls-10" d="M276.09,272v-9.55h-2.8v-2.95h9v2.95h-2.8V272Z"/><path class="cls-10" d="M284,272v-12.5h3.56a14.71,14.71,0,0,1,2.91.19,3.82,3.82,0,0,1,1.43.64,3.4,3.4,0,0,1,1,1.31,4.19,4.19,0,0,1,.37,1.75,3.69,3.69,0,0,1-.72,2.36,3.45,3.45,0,0,1-2.08,1.21l3.41,5H290l-2.87-4.89V272Zm3.19-6.59h.63a2.73,2.73,0,0,0,1.61-.38,1.36,1.36,0,0,0,.51-1.18,1.65,1.65,0,0,0-.47-1.33,2.48,2.48,0,0,0-1.6-.4h-.68Z"/><path class="cls-10" d="M295.1,259.48h3.4v6.08a17.38,17.38,0,0,0,.07,1.92,3.45,3.45,0,0,0,.23,1,1.42,1.42,0,0,0,.68.73,2.55,2.55,0,0,0,1.19.25,2.51,2.51,0,0,0,1.18-.25,1.48,1.48,0,0,0,.69-.73,3.82,3.82,0,0,0,.23-1,17.38,17.38,0,0,0,.07-1.92v-6.08h3.39v6.61a13.12,13.12,0,0,1-.25,3,3.88,3.88,0,0,1-.84,1.67,3.75,3.75,0,0,1-1.76,1.14,9.89,9.89,0,0,1-5.43,0,3.86,3.86,0,0,1-1.76-1.14,4.12,4.12,0,0,1-.84-1.67,13.71,13.71,0,0,1-.25-3v-6.61Z"/><path class="cls-10" d="M317.88,260v3.73a5.16,5.16,0,0,0-1.4-1.14,3.19,3.19,0,0,0-1.49-.37,3.07,3.07,0,0,0-2.38,1,3.77,3.77,0,0,0-.91,2.61,3.5,3.5,0,0,0,.93,2.5,3.09,3.09,0,0,0,2.36,1,3.18,3.18,0,0,0,1.49-.36,5.42,5.42,0,0,0,1.4-1.15v3.73a8.28,8.28,0,0,1-1.61.59,6.93,6.93,0,0,1-1.63.2,7.08,7.08,0,0,1-1.89-.25,5.26,5.26,0,0,1-1.59-.74A6.28,6.28,0,0,1,309,269a6.9,6.9,0,0,1-.73-3.21,7,7,0,0,1,.46-2.61,6.19,6.19,0,0,1,1.41-2.13,5.82,5.82,0,0,1,2-1.37,6.56,6.56,0,0,1,2.48-.45,6.91,6.91,0,0,1,1.63.19A9,9,0,0,1,317.88,260Z"/><path class="cls-10" d="M328.86,260v3.73a5.16,5.16,0,0,0-1.4-1.14,3.19,3.19,0,0,0-1.49-.37,3.07,3.07,0,0,0-2.38,1,3.77,3.77,0,0,0-.91,2.61,3.5,3.5,0,0,0,.93,2.5,3.09,3.09,0,0,0,2.36,1,3.18,3.18,0,0,0,1.49-.36,5.42,5.42,0,0,0,1.4-1.15v3.73a8.28,8.28,0,0,1-1.61.59,6.93,6.93,0,0,1-1.63.2,7.08,7.08,0,0,1-1.89-.25,5.26,5.26,0,0,1-1.59-.74A6.28,6.28,0,0,1,320,269a6.9,6.9,0,0,1-.73-3.21,7,7,0,0,1,.46-2.61,6.19,6.19,0,0,1,1.41-2.13,5.82,5.82,0,0,1,2-1.37,6.56,6.56,0,0,1,2.48-.45,6.91,6.91,0,0,1,1.63.19A9,9,0,0,1,328.86,260Z"/><path class="cls-10" d="M330.86,272v-12.5h3.45V272Z"/><path class="cls-10" d="M349.89,265.75a6.45,6.45,0,0,1-.49,2.53,6.28,6.28,0,0,1-1.45,2.11,6.81,6.81,0,0,1-7.3,1.42,6.72,6.72,0,0,1-3.62-3.54,6.41,6.41,0,0,1,1.46-7.15,6.39,6.39,0,0,1,2.16-1.42,6.71,6.71,0,0,1,5.13,0,6.43,6.43,0,0,1,2.17,1.42,6.2,6.2,0,0,1,1.44,2.11A6.3,6.3,0,0,1,349.89,265.75Zm-6.68,3.68a3,3,0,0,0,2.35-1.05,4.14,4.14,0,0,0,0-5.25,3.12,3.12,0,0,0-4.67,0,3.8,3.8,0,0,0-.93,2.62,3.84,3.84,0,0,0,.92,2.64A3,3,0,0,0,343.21,269.43Zm2.47-14.27-2.64,3h-1.31l1.55-3Z"/><path class="cls-10" d="M352,272v-12.5h3.29l4.73,6.43a8.84,8.84,0,0,1,.45.79c.2.39.43.86.68,1.41q-.1-.78-.15-1.38c0-.41,0-.77,0-1.08v-6.17h3.28V272H361l-4.72-6.46a6.84,6.84,0,0,1-.45-.79c-.21-.39-.44-.86-.68-1.39.06.52.11,1,.15,1.39s0,.76,0,1.07V272Z"/></g></g></g></svg>