<svg xmlns="http://www.w3.org/2000/svg" viewBox="0 0 111.29 111.29"><defs><style>.cls-1{fill:#fff;}</style></defs><title>Recurso 1</title><g id="Capa_2" data-name="Capa 2"><g id="Capa_1-2" data-name="Capa 1"><g id="Layer_1" data-name="Layer 1"><g id="Planning-paper-document-smartphone-pen"><path class="cls-1" d="M109.42,33.38H102V24.11a1.87,1.87,0,0,0-1.85-1.86h-13V5.56A5.58,5.58,0,0,0,81.6,0H48.22a5.58,5.58,0,0,0-5.57,5.56V22.25H25.82A13,13,0,0,0,0,24.11V98.29a13,13,0,0,0,13,13h96.44a1.85,1.85,0,0,0,1.85-1.85V35.24a1.85,1.85,0,0,0-1.84-1.86ZM87.16,26H98.29v7.42H87.16ZM46.36,63.1h26V59.35h-26V5.56a1.85,1.85,0,0,1,1.85-1.85H81.6a1.85,1.85,0,0,1,1.86,1.84h0V59.35H76v3.71h7.42v5.56a1.85,1.85,0,0,1-1.85,1.85H48.22a1.85,1.85,0,0,1-1.86-1.84h0ZM26,26H42.65v7.42H26ZM3.71,24.11a9.27,9.27,0,0,1,18.54,0V89.22A12.94,12.94,0,0,0,4,89l-.24.24Zm103.85,83.45H13a9.27,9.27,0,1,1,9.27-9.27,1.86,1.86,0,1,0,3.71.27,1.22,1.22,0,0,0,0-.27V37.09H42.65V68.62a5.58,5.58,0,0,0,5.57,5.56H81.6a5.57,5.57,0,0,0,5.56-5.56V37.09h20.4Z"/><path class="cls-1" d="M96.44,81.6H79.75a1.86,1.86,0,0,0-1.86,1.86H42.65a2,2,0,0,0-.59.09L30.93,87.26a1.85,1.85,0,0,0,0,3.52l11.13,3.71a2,2,0,0,0,.59.09H77.89a1.86,1.86,0,0,0,1.86,1.86H94.58v3.71H77.89v3.71H96.44A1.85,1.85,0,0,0,98.29,102h0V96.18A7.41,7.41,0,0,0,96.44,81.6ZM77.89,90.87H43L37.39,89,43,87.16H77.89Zm18.55,1.86H81.6V85.31H96.44a3.71,3.71,0,0,1,0,7.42Z"/><path class="cls-1" d="M64.91,13A14.84,14.84,0,1,0,79.75,27.84v0A14.84,14.84,0,0,0,64.91,13Zm1.85,3.88A11.11,11.11,0,0,1,75.87,26H66.76ZM64.91,39a11.13,11.13,0,0,1-1.85-22.09v11a1.85,1.85,0,0,0,1.85,1.85h11A11.14,11.14,0,0,1,64.91,39Z"/><path class="cls-1" d="M90.87,0h3.71V3.71H90.87Z"/><path class="cls-1" d="M98.29,0h13V3.71h-13Z"/><path class="cls-1" d="M90.87,7.42h3.71v3.71H90.87Z"/><path class="cls-1" d="M98.29,7.42h13v3.71h-13Z"/><path class="cls-1" d="M90.87,14.84h3.71v3.71H90.87Z"/><path class="cls-1" d="M98.29,14.84h13v3.71h-13Z"/></g></g></g></g></svg>